<?xml version="1.0" standalone="no"?>
<!DOCTYPE svg PUBLIC "-//W3C//DTD SVG 20010904//EN"
 "http://www.w3.org/TR/2001/REC-SVG-20010904/DTD/svg10.dtd">
<svg version="1.0" xmlns="http://www.w3.org/2000/svg"
 width="527.000000pt" height="525.000000pt" viewBox="0 0 527.000000 525.000000"
 preserveAspectRatio="xMidYMid meet">

<g transform="translate(0.000000,525.000000) scale(0.100000,-0.100000)"
fill="#000000" stroke="none">
<path d="M2415 5233 c-22 -2 -85 -10 -140 -19 -91 -14 -154 -26 -359 -70 -168
-37 -450 -154 -639 -265 -209 -123 -362 -244 -537 -425 -149 -154 -208 -229
-314 -394 -212 -329 -346 -682 -411 -1080 -22 -137 -21 -693 1 -811 26 -141
71 -308 119 -444 54 -153 190 -439 205 -430 6 4 7 -1 3 -12 -5 -15 -3 -16 8
-5 17 16 27 15 31 -3 2 -9 8 -11 16 -6 8 4 14 35 17 77 5 101 12 146 23 153 5
3 13 17 17 31 4 14 14 29 21 35 8 5 16 36 18 67 4 54 45 152 71 170 5 4 10 27
10 52 0 25 3 46 7 46 3 0 14 21 24 47 10 27 22 51 27 54 5 4 10 18 10 33 0 14
3 24 7 21 4 -2 12 20 19 50 7 30 19 61 27 69 8 8 14 20 14 26 0 6 4 9 8 6 5
-3 9 0 10 7 12 129 31 186 78 234 7 7 10 26 8 42 -3 16 2 46 10 66 8 19 11 33
6 30 -28 -17 3 47 43 90 15 16 27 41 28 55 0 23 6 73 12 111 2 8 17 33 35 54
20 25 30 46 26 57 -13 42 39 191 76 218 4 3 10 34 14 70 4 40 18 88 36 127 17
34 30 71 30 82 0 11 5 23 11 27 6 3 9 19 5 34 -3 15 -2 31 2 35 4 4 7 10 7 13
0 4 9 21 21 37 12 17 31 62 43 102 12 40 33 85 46 99 16 17 23 34 20 45 -3 9
-1 20 5 24 5 3 10 19 10 34 0 36 36 145 49 149 6 2 11 19 11 38 0 19 4 34 9
34 5 0 12 19 16 43 4 23 9 50 11 60 2 10 16 30 30 45 15 15 23 21 19 13 -6
-10 -4 -12 6 -5 8 5 23 9 34 9 30 1 126 36 121 44 -3 4 25 5 62 3 138 -8 215
-85 289 -287 23 -60 55 -148 73 -195 39 -106 131 -373 220 -640 37 -113 87
-252 110 -310 23 -58 75 -202 115 -320 136 -397 232 -674 277 -800 77 -211
138 -395 138 -414 0 -17 18 -17 323 -11 334 7 427 14 513 40 80 24 194 108
199 148 1 12 5 33 9 47 3 14 8 39 11 55 3 19 18 41 40 58 19 16 35 34 35 39 0
6 8 17 18 24 15 11 17 30 17 147 l0 134 -43 85 c-24 47 -57 100 -74 117 -38
39 -88 75 -88 64 0 -4 -4 -3 -8 3 -11 18 -102 60 -167 80 -54 15 -92 16 -370
10 -357 -9 -358 -9 -391 -31 -22 -14 -27 -14 -46 -1 -11 8 -33 44 -48 80 -15
35 -36 77 -47 93 -45 64 -113 202 -127 260 -25 95 -76 247 -85 253 -12 7 -47
132 -62 220 -18 111 -19 1085 -1 1030 3 -7 9 -4 17 7 12 17 46 18 477 25 504
7 563 4 745 -42 245 -62 457 -202 601 -395 60 -82 90 -143 124 -255 70 -233
54 -482 -46 -679 -37 -71 -136 -200 -199 -258 l-57 -52 67 -57 c81 -68 181
-187 223 -265 16 -31 42 -101 57 -155 26 -91 28 -113 28 -279 0 -249 -25 -358
-122 -519 -20 -33 -53 -79 -72 -102 -79 -89 -89 -102 -83 -109 4 -4 0 -6 -8
-3 -9 3 -37 -15 -67 -43 -103 -93 -293 -185 -462 -223 -136 -31 -219 -35 -657
-36 l-437 -1 -29 28 c-38 36 -50 60 -87 169 -16 49 -38 114 -50 144 -11 30
-31 93 -44 140 -13 47 -47 158 -76 246 -28 89 -51 169 -51 178 0 13 -7 15 -42
10 -24 -3 -49 -8 -57 -10 -28 -9 -1092 -4 -1108 5 -15 8 -29 -27 -109 -263
-50 -149 -101 -296 -113 -326 -13 -30 -36 -93 -52 -139 -27 -80 -98 -213 -119
-226 -18 -11 -11 -24 10 -20 11 2 18 0 15 -5 -9 -15 24 -72 37 -64 6 4 8 3 5
-3 -4 -5 6 -20 21 -33 15 -12 45 -40 68 -62 23 -22 50 -41 60 -42 10 -2 19 -7
19 -13 0 -17 64 -65 76 -57 7 4 9 3 5 -4 -10 -16 229 -176 247 -165 6 3 7 1 4
-4 -8 -12 146 -96 157 -86 3 3 6 1 6 -6 0 -8 6 -11 16 -7 8 3 13 2 10 -2 -7
-12 103 -64 116 -56 6 4 8 3 5 -3 -3 -5 20 -18 51 -28 31 -10 69 -25 84 -32
47 -23 268 -82 403 -108 124 -24 146 -25 515 -25 212 0 412 5 445 10 121 20
245 52 238 63 -3 6 -1 7 5 3 11 -6 82 11 205 50 26 9 45 20 42 25 -4 5 0 6 8
4 24 -10 250 92 240 108 -3 6 -1 7 6 3 12 -8 203 93 196 104 -2 4 2 7 8 7 33
0 323 217 321 240 -1 7 2 11 6 8 11 -7 136 99 152 128 7 12 11 26 9 32 -1 5 0
7 4 3 6 -6 85 66 85 78 0 2 16 18 35 35 20 18 39 47 45 69 6 22 17 46 25 54 8
8 15 19 15 25 0 6 5 11 10 11 6 0 10 7 10 16 0 9 5 12 12 8 8 -5 9 -2 5 10 -4
9 -3 15 2 12 4 -3 22 9 39 26 23 22 32 40 32 64 0 18 5 36 10 39 6 4 8 11 5
16 -4 5 -1 9 4 9 6 0 11 7 11 15 0 8 6 15 14 15 15 0 38 50 41 92 2 17 16 40
39 60 25 22 36 40 36 60 0 15 5 28 11 28 5 0 15 14 20 30 6 17 15 30 19 30 25
0 111 246 150 430 57 267 63 318 63 575 0 269 -12 375 -68 610 -99 411 -261
750 -507 1057 -104 130 -307 334 -418 420 -161 124 -380 253 -590 346 -123 54
-347 120 -570 167 -165 35 -494 53 -675 38z m-828 -909 c-3 -3 -12 -4 -19 -1
-8 3 -5 6 6 6 11 1 17 -2 13 -5z"/>
<path d="M3098 3853 l-158 -4 -1 -382 c-1 -210 -4 -427 -8 -482 -4 -55 -6
-102 -4 -104 2 -3 173 -4 379 -3 l376 1 79 37 c44 21 86 48 95 62 12 18 12 23
3 17 -8 -3 -2 3 13 15 16 12 25 27 21 35 -3 8 -1 15 3 15 5 0 10 13 11 30 2
34 31 82 44 74 5 -3 9 3 9 14 0 10 11 25 25 32 93 50 35 363 -91 485 -48 47
-170 114 -254 140 -60 18 -254 25 -542 18z"/>
<path d="M1646 3500 c-3 -8 -28 -91 -56 -185 -29 -93 -54 -173 -56 -177 -6
-10 -185 -532 -239 -696 -24 -74 -41 -141 -38 -150 4 -9 2 -13 -4 -9 -12 7
-27 -22 -17 -32 7 -7 721 -10 807 -4 49 4 58 8 54 21 -54 169 -93 288 -182
542 -59 168 -127 366 -152 440 -70 210 -73 218 -93 242 -15 19 -20 20 -24 8z"/>
</g>
</svg>
